<svg xmlns="http://www.w3.org/2000/svg" xmlns:xlink="http://www.w3.org/1999/xlink" width="200" zoomAndPan="magnify" viewBox="0 0 150 157.92" height="200" preserveAspectRatio="xMidYMid meet" version="1.0"><defs><clipPath id="4b2abdf0e3"><path d="M 1.765625 3.457031 L 147.941406 3.457031 L 147.941406 149.632812 L 1.765625 149.632812 Z M 1.765625 3.457031 " clip-rule="nonzero"/></clipPath><clipPath id="2518a8b682"><path d="M 26 98 L 124 98 L 124 149.632812 L 26 149.632812 Z M 26 98 " clip-rule="nonzero"/></clipPath></defs><g clip-path="url(#4b2abdf0e3)"><path fill="#d9deeb" d="M 147.941406 76.542969 C 147.941406 77.808594 147.917969 79.050781 147.84375 80.296875 C 147.84375 80.320312 147.84375 80.34375 147.84375 80.34375 C 147.796875 81.316406 147.722656 82.269531 147.625 83.21875 C 147.625 83.511719 147.574219 83.828125 147.550781 84.121094 C 147.527344 84.363281 147.503906 84.632812 147.453125 84.875 C 147.234375 87.042969 146.894531 89.164062 146.457031 91.257812 C 146.210938 92.453125 145.945312 93.644531 145.628906 94.789062 C 145.335938 95.960938 145.019531 97.128906 144.652344 98.273438 C 144.335938 99.25 144.019531 100.246094 143.652344 101.199219 C 143.582031 101.464844 143.484375 101.710938 143.386719 101.976562 C 143.019531 103 142.605469 104 142.191406 104.972656 C 141.925781 105.632812 141.632812 106.289062 141.289062 106.949219 C 141.046875 107.582031 140.753906 108.191406 140.4375 108.800781 C 139.949219 109.796875 139.4375 110.796875 138.878906 111.773438 C 137.636719 114.0625 136.246094 116.277344 134.761719 118.398438 C 134.199219 119.203125 133.640625 119.980469 133.054688 120.738281 C 132.324219 121.6875 131.59375 122.613281 130.816406 123.515625 C 130.15625 124.316406 129.449219 125.097656 128.742188 125.878906 C 128.402344 126.265625 128.039062 126.65625 127.648438 127.023438 C 127.136719 127.605469 126.574219 128.144531 126.015625 128.703125 L 125.992188 128.726562 C 125.941406 128.777344 125.867188 128.824219 125.820312 128.875 C 125.699219 128.996094 125.578125 129.117188 125.453125 129.214844 C 124.796875 129.871094 124.140625 130.507812 123.457031 131.089844 C 123.382812 131.164062 123.3125 131.214844 123.238281 131.285156 C 122.507812 131.945312 121.75 132.601562 120.972656 133.234375 C 120.726562 133.429688 120.460938 133.625 120.191406 133.84375 C 119.535156 134.378906 118.851562 134.890625 118.144531 135.402344 C 117.316406 136.035156 116.464844 136.621094 115.585938 137.207031 C 114.855469 137.71875 114.125 138.179688 113.394531 138.621094 C 112.808594 139.007812 112.203125 139.375 111.566406 139.714844 C 110.8125 140.179688 110.03125 140.617188 109.253906 141.03125 C 108.230469 141.566406 107.207031 142.101562 106.136719 142.589844 C 104.796875 143.25 103.429688 143.832031 102.042969 144.367188 C 101.261719 144.710938 100.457031 145.003906 99.65625 145.292969 C 98.558594 145.707031 97.4375 146.074219 96.292969 146.414062 C 95.246094 146.757812 94.171875 147.046875 93.101562 147.316406 C 92.441406 147.511719 91.785156 147.65625 91.101562 147.78125 C 90.542969 147.949219 89.957031 148.070312 89.375 148.167969 C 87.9375 148.484375 86.5 148.730469 85.011719 148.898438 C 84.085938 149.046875 83.160156 149.167969 82.210938 149.265625 C 79.800781 149.507812 77.339844 149.632812 74.851562 149.632812 C 72.367188 149.632812 69.90625 149.507812 67.496094 149.265625 C 66.546875 149.167969 65.621094 149.046875 64.695312 148.898438 C 63.207031 148.730469 61.769531 148.484375 60.332031 148.167969 C 59.75 148.070312 59.164062 147.949219 58.605469 147.78125 C 57.921875 147.65625 57.261719 147.511719 56.605469 147.316406 C 55.535156 147.046875 54.460938 146.757812 53.414062 146.414062 C 52.269531 146.074219 51.148438 145.707031 50.050781 145.292969 C 49.25 145.003906 48.445312 144.710938 47.664062 144.367188 C 46.277344 143.832031 44.910156 143.25 43.570312 142.589844 C 42.5 142.101562 41.476562 141.566406 40.453125 141.03125 C 39.671875 140.617188 38.917969 140.179688 38.164062 139.714844 C 37.53125 139.375 36.921875 139.007812 36.3125 138.621094 C 35.582031 138.179688 34.851562 137.71875 34.117188 137.207031 C 33.242188 136.621094 32.390625 136.035156 31.5625 135.402344 C 30.855469 134.890625 30.171875 134.378906 29.515625 133.84375 C 29.246094 133.625 28.980469 133.429688 28.734375 133.234375 C 27.957031 132.601562 27.199219 131.945312 26.46875 131.285156 C 26.394531 131.214844 26.324219 131.164062 26.25 131.089844 C 25.566406 130.507812 24.910156 129.871094 24.253906 129.214844 C 24.128906 129.117188 24.007812 128.996094 23.886719 128.875 C 23.839844 128.824219 23.765625 128.777344 23.714844 128.726562 L 23.691406 128.703125 C 23.132812 128.144531 22.570312 127.605469 22.058594 127.023438 C 21.667969 126.65625 21.304688 126.265625 20.964844 125.878906 C 20.257812 125.097656 19.550781 124.316406 18.890625 123.515625 C 18.113281 122.613281 17.382812 121.6875 16.652344 120.738281 C 16.066406 119.980469 15.507812 119.203125 14.945312 118.398438 C 13.460938 116.277344 12.070312 114.0625 10.828125 111.773438 C 10.269531 110.796875 9.757812 109.796875 9.269531 108.800781 C 8.953125 108.191406 8.660156 107.582031 8.417969 106.949219 C 8.074219 106.289062 7.78125 105.632812 7.515625 104.972656 C 7.101562 104 6.6875 103 6.320312 101.976562 C 6.222656 101.710938 6.125 101.464844 6.054688 101.199219 C 5.6875 100.246094 5.371094 99.25 5.054688 98.273438 C 4.6875 97.128906 4.371094 95.960938 4.078125 94.789062 C 3.761719 93.644531 3.496094 92.453125 3.25 91.257812 C 2.8125 89.164062 2.472656 87.042969 2.253906 84.875 C 2.203125 84.632812 2.179688 84.363281 2.15625 84.121094 C 2.132812 83.828125 2.082031 83.511719 2.082031 83.21875 C 1.984375 82.269531 1.910156 81.316406 1.863281 80.34375 C 1.863281 80.34375 1.863281 80.320312 1.863281 80.296875 C 1.789062 79.050781 1.765625 77.808594 1.765625 76.542969 C 1.765625 36.175781 34.484375 3.457031 74.855469 3.457031 C 115.222656 3.457031 147.941406 36.175781 147.941406 76.542969 Z M 147.941406 76.542969 " fill-opacity="1" fill-rule="nonzero"/></g><g clip-path="url(#2518a8b682)"><path fill="#a4a8b3" d="M 123.238281 131.285156 C 122.507812 131.945312 121.75 132.601562 120.972656 133.234375 C 120.726562 133.429688 120.460938 133.625 120.191406 133.84375 C 119.535156 134.378906 118.851562 134.890625 118.144531 135.402344 C 117.316406 136.035156 116.464844 136.621094 115.589844 137.207031 C 114.855469 137.71875 114.125 138.179688 113.394531 138.621094 C 112.8125 139.007812 112.203125 139.375 111.566406 139.714844 C 110.8125 140.179688 110.035156 140.617188 109.253906 141.03125 C 108.230469 141.566406 107.207031 142.101562 106.136719 142.589844 C 104.796875 143.25 103.429688 143.832031 102.042969 144.367188 C 101.261719 144.710938 100.457031 145.003906 99.65625 145.292969 C 98.558594 145.707031 97.4375 146.074219 96.292969 146.414062 C 95.246094 146.757812 94.171875 147.046875 93.101562 147.316406 C 92.445312 147.511719 91.785156 147.65625 91.101562 147.78125 C 90.542969 147.949219 89.957031 148.070312 89.375 148.167969 C 87.9375 148.484375 86.5 148.730469 85.011719 148.898438 C 84.085938 149.046875 83.160156 149.167969 82.210938 149.265625 C 79.800781 149.507812 77.339844 149.632812 74.855469 149.632812 C 72.367188 149.632812 69.90625 149.507812 67.496094 149.265625 C 66.546875 149.167969 65.621094 149.046875 64.695312 148.898438 C 63.207031 148.730469 61.769531 148.484375 60.332031 148.167969 C 59.75 148.070312 59.164062 147.949219 58.605469 147.78125 C 57.921875 147.65625 57.265625 147.511719 56.605469 147.316406 C 55.535156 147.046875 54.460938 146.757812 53.414062 146.414062 C 52.269531 146.074219 51.148438 145.707031 50.050781 145.292969 C 49.25 145.003906 48.445312 144.710938 47.664062 144.367188 C 46.277344 143.832031 44.910156 143.25 43.570312 142.589844 C 42.5 142.101562 41.476562 141.566406 40.453125 141.03125 C 39.675781 140.617188 38.917969 140.179688 38.164062 139.714844 C 37.53125 139.375 36.921875 139.007812 36.3125 138.621094 C 35.582031 138.179688 34.851562 137.71875 34.121094 137.207031 C 33.242188 136.621094 32.390625 136.035156 31.5625 135.402344 C 30.855469 134.890625 30.171875 134.378906 29.515625 133.84375 C 29.246094 133.625 28.980469 133.429688 28.734375 133.234375 C 27.957031 132.601562 27.199219 131.945312 26.46875 131.285156 C 29.808594 111.332031 47.640625 98.46875 74.855469 98.46875 C 102.066406 98.46875 119.898438 111.332031 123.238281 131.285156 Z M 123.238281 131.285156 " fill-opacity="1" fill-rule="nonzero"/></g><path fill="#a4a8b3" d="M 74.855469 88.722656 C 60.234375 88.722656 45.617188 84.210938 40.746094 77.445312 C 40.746094 77.445312 50.492188 75.1875 50.492188 59.398438 C 50.492188 59.398438 50.492188 54.886719 50.492188 48.121094 C 50.492188 41.351562 55.363281 36.839844 57.800781 36.839844 C 57.800781 36.839844 60.234375 27.816406 74.855469 27.816406 C 91.90625 27.816406 99.214844 37.558594 99.214844 49.742188 C 99.214844 58.765625 99.214844 59.398438 99.214844 59.398438 C 99.214844 75.1875 108.960938 77.441406 108.960938 77.441406 C 104.089844 84.210938 87.035156 88.722656 74.855469 88.722656 " fill-opacity="1" fill-rule="nonzero"/></svg>